<?xml version="1.0" encoding="UTF-8"?>
<svg id="Layer_1" data-name="Layer 1" xmlns="http://www.w3.org/2000/svg" viewBox="0 0 870.33 891.05">
  <defs>
    <style>
      .cls-1 {
        fill: #fff;
      }
    </style>
  </defs>
  <path class="cls-1" d="M511.5,83.7c33.67,8.86,66.55,20.45,97.56,36.25,1.39-.04,6.32-4.13,7.78-5.36,15.25-12.9,32.44-33.43,48.1-44.31,3.06-2.13,4.65-3.75,8.79-3.1,3.44.54,23.46,19.92,27.73,23.96,17.91,16.95,37.98,36.52,54.6,54.6,2.31,2.51,13.27,14.4,13.84,16.17.95,2.96.93,6.23-.84,8.9l-41.87,56.61c-.37,3.53,13.18,24.65,15.84,29.75,4.81,9.2,9.59,18.6,14.02,27.98,3.29,6.96,9.28,25.92,12.79,30.41,1,1.28,1.86,2.25,3.61,2.39l79.09,7.31c8.73,1.36,8.27,11.26,9.08,18.52,3.52,31.84,7.29,71.44,8.4,103.2.35,10.07,2.07,14.67-8.37,18.01-24.08,7.71-52.13,10.22-76.54,17.65-8.71,32.46-16.82,65.23-28.9,96.65-.27,2.7,2.97,5.79,4.65,8.05,12.98,17.4,30.82,34.1,42.96,51.84,2.75,4.02,5.2,6.17,1.64,10.83-22.62,25.48-42.59,57.32-65.62,81.98-3.12,3.34-6.77,8.53-11.78,6.99-2.89-.88-6.71-10.24-8.25-13.39-19.34-39.52-39.57-86.38-56.4-127.2-1.08-2.61-3.78-8.11-4.11-10.37-.63-4.25,8.5-16.84,10.95-21.61,76.56-149.36,20.74-324.48-137.1-387.35-118.92-47.36-259.35-.67-327.22,106.62-58.09,91.83-52.79,211.41,5.32,301.59l-61.39,141.54c-5.73,13.81-10.27,12.79-19.65,3.18-17.75-18.17-49.33-57.03-63.48-78.12-4.19-6.25-5.99-7.13-1.23-14.22l48.5-59.44c-12.14-31.42-21.46-63.84-29.42-96.59-.92-1.39-2.39-1.71-3.86-2.14-23.78-6.93-51.48-8.89-75.38-17.02-3.41-1.08-5.21-4.4-5.34-7.85,3.69-37.04,4.32-74.65,8.43-111.62.75-6.73.43-17.5,8.06-19.54l81.24-8.76c13.39-29.66,26.19-59.69,43.72-87.21l-.4-2.64-40.01-54.87c-2.19-3.36-3.75-7.02-1.71-10.88,7.54-7.64,14.5-15.96,21.86-23.74,18.23-19.26,43.18-46.4,63-63,9.21-7.72,11.37-10.37,21.6-2.33,16.03,12.61,31.94,32.96,48.04,44.36,1.51,1.07,2.93,2.33,4.91,2.42s30.02-14.08,35.31-16.2c19.92-7.98,41.14-14.75,62.22-18.78l8.88-73.32c.98-3.79,1.53-9.58,6.31-10.49l127.79.56c2.12,1.05,3.06,5.12,3.47,7.33,4.18,22.37,4.03,48.88,7.42,71.83.21,1.41.51,2.83,1.37,3.99Z"/>
  <path class="cls-1" d="M390.02,370.77h90l-2.21-15.41c.88-.16,2.38-1.39,2.81-1.39h21.6c5.29,0,4.6,15.3,8.56,16.64l30.45.75c.97.59,9.12,18.9,9.39,20.7.23,1.52-.35,3.91-1.6,3.91h-31.8l8.33,25.87c6.83,2.23,32.97-1.82,36.97,2.03.91.88,9.44,21.69,9.7,23.38.23,1.52-.35,3.91-1.6,3.91h-35.4l9.77,34.63,40.63.77c1.36.77,1.88,2.12,2.63,3.37,1.85,3.08,10.68,25.08,11.3,28.39.27,1.47.05,3.65-1.33,3.65h-41.4l13.32,45.48,50.29.72,18.72,41.32-1.33,2.49h-52.2l16.92,57.48,57.46.74c1.71,1.17,2.85,2.77,3.86,4.54,4.86,8.54,19.89,44.4,22.03,53.57.38,1.62.72,3.19.53,4.87l-63.6-1.19,24.58,76.81,73.3,2.3c1.83,1.54,2.86,3.57,3.98,5.62,6.74,12.47,23.71,51.27,26.92,64.27,1.03,4.19,2.38,8.38-2.71,10.05H121.12c-4.15-1.12-3.59-5.81-2.98-9.1,1.7-9.14,12.65-32.07,16.92-41.92,2.65-6.11,10.36-26.74,15.05-29.36l69.56-1.23,25.15-76.25h-62.4c-.26-2.11.09-3.97.59-6.01,2.43-9.82,16.06-41.34,21.16-50.84,2.32-4.32,3.56-6.16,8.83-6.77,7.71-.9,51.48,1.85,53.37-.03l18.05-57.54h-51c-3.17,0-.43-5.91.04-7.17,1.76-4.76,15.11-35.55,17.35-36.64l47.43-1.77,13.78-44.42h-41.4l-1.64-2.8c4.05-5.41,10.67-30.44,15.46-32.58l39.41-.79,10.93-33.96c-2-3.69-4.21-.68-5.36-.68h-30c-1.29,0-1.76-2.45-1.6-3.89.2-1.76,8.79-22.52,9.7-23.4,3.78-3.6,30.19-.37,36.85-1.56l7.25-26.35h-29.4c-1.25,0-1.83-2.39-1.6-3.91.3-1.97,8.24-20.01,9.38-20.7l30.09-1.11c2.08-3.25,3.1-16.27,7.73-16.27h21.6c5.31,0-.27,13.58.6,16.8ZM375.62,422.37h117.6l-5.86-25.7-103.78-.54-7.96,26.24ZM360.02,485.97h148.8l-9.13-36.07-129.31.23-1.73,1.87-8.63,33.97ZM340.82,567.57h187.2l-10.45-45.32-2.1-1.56-161.89.23-12.75,46.65ZM316.82,669.57h232.8l-13.9-57.67-205.66.12-13.25,57.55ZM285.62,809.97h297.6l-19.94-79.27-256.51.23-21.15,79.05Z"/>
</svg>